<?xml version="1.0" ?><!DOCTYPE svg  PUBLIC '-//W3C//DTD SVG 1.1//EN'  'http://www.w3.org/Graphics/SVG/1.1/DTD/svg11.dtd'><svg height="100%" style="fill-rule:evenodd;clip-rule:evenodd;stroke-linejoin:round;stroke-miterlimit:2;" version="1.1" viewBox="0 0 100 100" width="100%" xml:space="preserve" xmlns="http://www.w3.org/2000/svg" xmlns:serif="http://www.serif.com/" xmlns:xlink="http://www.w3.org/1999/xlink"><g id="Icon"><path d="M25.349,70.017c-0.644,1.733 -0.79,3.071 -1.344,5.032c-0.995,3.52 -2.659,6.794 -3.649,10.328c-0.199,0.712 -0.516,2.522 -1.063,3.961c-0.155,0.41 -0.327,0.786 -0.528,1.08c-0.1,0.144 -0.181,0.281 -0.306,0.323c-0.524,0.174 -0.807,0.741 -0.633,1.265c0.175,0.523 0.742,0.807 1.265,0.632c0.657,-0.219 1.277,-0.868 1.737,-1.808c0.321,-0.658 0.585,-1.47 0.801,-2.256c0.086,-0.04 0.168,-0.093 0.242,-0.159c4.245,-3.773 8.112,-7.499 11.48,-12.112c1.174,-1.607 2.337,-3.216 3.636,-4.726c0.178,-0.208 0.404,-0.542 0.656,-0.848c0.116,-0.142 0.21,-0.308 0.342,-0.352c0.108,-0.036 0.206,-0.089 0.291,-0.154c0.335,0.112 0.704,0.188 1.087,0.233c0.872,0.102 1.827,0.05 2.51,0.028c3.999,-0.129 7.827,-1.657 11.492,-3.141c3.952,-1.599 8.208,-3.422 11.785,-5.736c6.088,-3.94 11.69,-9.69 16.728,-14.845c1.666,-1.705 2.996,-3.551 4.235,-5.584c0.313,-0.514 0.654,-1.254 1.045,-1.952c0.301,-0.536 0.613,-1.062 1.013,-1.328c0.459,-0.307 0.583,-0.928 0.277,-1.387c-0.22,-0.331 -0.603,-0.488 -0.972,-0.436c-0.046,-0.006 -0.093,-0.01 -0.14,-0.01c-2.598,0 -5.197,0.294 -7.784,0.007c-3.032,-0.337 -6.71,-1.276 -10.264,-1.498c-2.527,-0.158 -4.989,0.047 -7.158,0.99c1.764,-4.629 3.388,-10.177 3.938,-15.054c0.206,-1.821 0.102,-3.705 0.043,-5.532c-0.019,-0.586 -0.036,-1.173 -0.076,-1.758c-0.021,-0.301 -0.056,-0.905 -0.056,-0.905c-0.031,-0.551 -0.504,-0.972 -1.055,-0.941c-0.096,0.006 -0.188,0.025 -0.275,0.055c-0.217,0.003 -0.435,0.076 -0.617,0.224c-6.785,5.513 -13.85,10.476 -20.944,15.604c-0.693,0.501 -1.623,1.162 -2.472,1.776c-0.307,-1.401 -0.8,-2.795 -1.215,-4.128c-1.276,-4.103 -2.825,-8.144 -4.376,-12.152c-0.599,-1.548 -1.222,-3.111 -2.167,-4.489c-0.134,-0.196 -0.391,-0.652 -0.648,-0.951c-0.133,-0.153 -0.274,-0.276 -0.412,-0.367c-0.392,-0.354 -0.998,-0.341 -1.376,0.036c-5.396,5.396 -10.7,11.755 -14.059,18.615c-2.704,5.524 -4.142,11.696 -5.205,17.723c-1.523,8.627 -1.597,16.306 6.024,21.611c1.52,1.058 6.265,4.352 8.167,5.086Zm11.529,-5.196c-3.007,2.139 -6.032,4.454 -9.548,5.617c-0.728,1.827 -0.835,3.154 -1.401,5.155c-0.921,3.261 -2.418,6.312 -3.42,9.554c3.371,-3.092 6.473,-6.251 9.227,-10.023c1.205,-1.651 2.401,-3.301 3.735,-4.851c0.214,-0.249 0.495,-0.679 0.809,-1.026c0.079,-0.087 0.161,-0.17 0.245,-0.247c-0.144,-0.173 -0.23,-0.396 -0.23,-0.638c-0,-1.186 0.278,-2.388 0.583,-3.541Zm6.538,-6.832c-3.146,-0.168 -6.463,0.845 -9.43,1.651c-0.585,0.159 -1.325,0.517 -2.043,0.776c-0.331,0.12 -0.659,0.219 -0.969,0.278c-0.654,0.919 -1.353,1.845 -2.011,2.789c-1.082,1.552 -2.056,3.155 -2.494,4.876c0.07,0.058 0.13,0.124 0.181,0.197c3.753,-1.22 6.89,-3.868 10.094,-6.086c0.364,-0.252 0.728,-0.508 1.091,-0.768c0.299,-0.214 0.677,-0.24 0.991,-0.1c1.546,-1.132 3.083,-2.338 4.59,-3.613Zm25.324,-1.493c-5.218,-0.6 -9.634,0.125 -14.878,1.041c-0.901,0.157 -1.866,0.534 -2.833,0.868c-0.888,0.307 -1.779,0.578 -2.624,0.653c-0.414,0.405 -0.824,0.816 -1.229,1.234c-2.107,2.172 -4.461,4.105 -6.819,5.991c-0.342,0.274 -1.106,0.798 -1.661,1.372c-0.131,0.135 -0.25,0.273 -0.344,0.41c0.085,0.028 0.168,0.068 0.246,0.12c0.26,0.173 0.62,0.241 0.997,0.285c0.769,0.09 1.611,0.034 2.213,0.015c3.765,-0.122 7.356,-1.599 10.807,-2.996c3.838,-1.553 7.975,-3.314 11.449,-5.562c1.593,-1.031 3.152,-2.19 4.676,-3.431Zm-39.689,-14.84c-1.641,2.068 -3.102,4.326 -4.326,6.852c-2.478,5.11 -0.978,10.994 0.206,16.246c0.105,0.466 0.29,1.822 0.683,2.949c0.508,-1.68 1.462,-3.262 2.528,-4.792c0.558,-0.8 1.146,-1.586 1.71,-2.365c-0.048,-0.06 -0.092,-0.128 -0.131,-0.204c-0.169,-0.328 -0.267,-0.834 -0.309,-1.025c-0.258,-1.182 -0.414,-2.389 -0.596,-3.584c-0.711,-4.667 -0.568,-9.433 0.235,-14.077Zm-16.702,8.477c-0.193,5.169 1.051,9.728 5.976,13.157c1.113,0.775 4.047,2.847 6.14,4.057c-0.271,-0.99 -0.421,-1.98 -0.509,-2.373c-0.301,-1.333 -0.616,-2.705 -0.883,-4.095c-0.16,-0.01 -0.313,-0.097 -0.4,-0.245c-1.821,-3.094 -4.787,-5.346 -7.489,-7.649c-0.603,-0.514 -1.883,-1.758 -2.835,-2.852Zm35.641,5.062c-2.71,2.626 -5.597,5.032 -8.52,7.175c0.084,0.31 0.012,0.64 -0.184,0.885c-0.047,0.227 -0.291,1.394 -0.334,1.552c-0.144,0.535 -0.297,1.084 -0.419,1.639c0.467,-0.398 0.942,-0.738 1.199,-0.944c2.326,-1.86 4.649,-3.764 6.726,-5.906c0.094,-0.097 0.189,-0.194 0.283,-0.291c-0.017,-0.051 -0.027,-0.106 -0.027,-0.163c0,-0.753 0.226,-1.553 0.548,-2.352c0.216,-0.537 0.476,-1.074 0.728,-1.595Zm-12.084,-20.515c-1.971,1.682 -3.833,3.456 -5.534,5.394c-1.07,5.086 -1.352,10.359 -0.568,15.508c0.179,1.175 0.332,2.36 0.585,3.522c0.022,0.1 0.059,0.308 0.121,0.515c0.404,-0.585 0.782,-1.169 1.111,-1.754c1.861,-3.307 3.909,-6.466 6.089,-9.531c-0.027,-0.018 -0.052,-0.039 -0.076,-0.062c-0.339,-0.339 -0.589,-0.914 -0.757,-1.562c-0.216,-0.84 -0.31,-1.804 -0.405,-2.367c-0.546,-3.23 -0.566,-6.414 -0.566,-9.663Zm17.712,12.78c-3.905,-0.404 -6.518,-0.737 -10.541,0.069c-1.51,0.302 -3.029,1.071 -4.521,1.34c-2.171,3.049 -4.211,6.193 -6.063,9.487c-0.191,0.339 -0.399,0.679 -0.618,1.018c0.028,-0.011 0.055,-0.021 0.082,-0.032c0.63,-0.248 1.255,-0.528 1.766,-0.667c3.219,-0.874 6.841,-1.958 10.235,-1.649c0.146,0.013 0.271,0.087 0.353,0.194c3.369,-2.937 6.556,-6.215 9.307,-9.76Zm-39.136,-10.392c-0.532,2.193 -0.968,4.407 -1.355,6.599c-0.302,1.711 -0.553,3.384 -0.688,5.003c0.788,1.113 2.651,2.921 3.394,3.554c2.418,2.061 5.027,4.095 6.901,6.682c-0.496,-3.34 -0.554,-6.724 0.669,-9.867c-0.01,-0.019 -0.02,-0.039 -0.027,-0.06c-1.192,-3.177 -4.031,-6.762 -6.311,-9.176l-2.583,-2.735Zm48.341,0.373c-0.756,0.343 -1.467,0.8 -2.118,1.397c-0.047,0.055 -0.099,0.104 -0.155,0.146c-0.034,0.033 -0.067,0.065 -0.1,0.098c-0.145,0.145 -0.324,0.237 -0.512,0.274c-2.556,5.152 -6.184,9.947 -10.326,14.218c0.059,0.119 0.071,0.262 0.02,0.397c-0.307,0.818 -0.798,1.731 -1.214,2.659c-0.218,0.486 -0.417,0.976 -0.548,1.456c0.029,-0.005 0.058,-0.008 0.088,-0.008c0.007,0 0.014,0 0.021,0c3.473,-3.352 7.222,-6.227 11.212,-8.768c-0.009,-0.038 -0.014,-0.077 -0.014,-0.118c-0,-0.624 0.25,-1.304 0.604,-1.981c0.464,-0.885 1.108,-1.769 1.414,-2.503c0.952,-2.277 1.387,-4.812 1.628,-7.267Zm14.049,11.559c-0.77,-0.113 -1.617,-0.12 -2.259,-0.195c-3.492,-0.411 -7.426,-0.135 -10.898,0.299c-1.046,0.13 -2.175,0.621 -3.224,0.621c-0.025,-0 -0.05,-0.002 -0.075,-0.006c-3.771,2.349 -7.331,4.99 -10.646,8.045c0.309,-0.092 0.621,-0.196 0.933,-0.304c1.018,-0.352 2.038,-0.743 2.987,-0.908c5.656,-0.988 10.368,-1.745 16.101,-0.929c2.458,-2.083 4.819,-4.357 7.081,-6.623Zm6.01,-10.816c-1.185,0.023 -2.369,0.007 -3.551,-0.125c-3.004,-0.333 -6.647,-1.269 -10.168,-1.489c-1.847,-0.115 -3.663,-0.037 -5.313,0.48c0.006,0.038 0.007,0.077 0.003,0.117c-0.242,2.667 -0.697,5.443 -1.735,7.927c-0.266,0.637 -0.771,1.386 -1.213,2.151c-0.271,0.469 -0.523,0.942 -0.647,1.397c3.32,-2.045 6.801,-3.87 10.423,-5.557c4.029,-1.876 7.966,-3.736 12.201,-4.901Zm2.317,0.463c-4.981,1.054 -9.476,3.193 -14.096,5.344c-2.835,1.321 -5.583,2.727 -8.236,4.259c0.244,-0.059 0.486,-0.109 0.724,-0.139c3.549,-0.443 7.57,-0.719 11.138,-0.299c0.85,0.1 2.02,0.117 2.979,0.346c0.93,-0.941 1.844,-1.877 2.739,-2.793c1.559,-1.596 2.799,-3.326 3.958,-5.228c0.244,-0.401 0.505,-0.941 0.794,-1.49Zm-66.242,-13.721c-0.277,0.513 -0.543,1.03 -0.798,1.55c-1.466,2.995 -2.543,6.187 -3.388,9.442l3.021,3.198c2.161,2.289 4.796,5.602 6.173,8.671c0.41,-0.828 0.844,-1.627 1.301,-2.399c-0.106,-0.092 -0.173,-0.227 -0.173,-0.378c0,-1.85 0.536,-3.649 0.886,-5.451c0.293,-1.506 0.573,-3.013 0.86,-4.518c-0.011,-0.01 -0.021,-0.021 -0.03,-0.032c-2.071,-2.485 -3.67,-5.329 -5.769,-7.785c-0.384,-0.45 -0.888,-1.171 -1.444,-1.746c-0.208,-0.215 -0.421,-0.412 -0.639,-0.552Zm39.89,13.893c-3.2,-0.333 -6.537,-0.153 -9.671,0.602c-1.25,0.301 -3.279,1.034 -5.123,2.502c-0.096,0.076 -0.211,0.112 -0.325,0.108c-1.463,1.838 -2.892,3.697 -4.273,5.59c1.136,-0.342 2.283,-0.844 3.425,-1.073c4.341,-0.869 7.082,-0.461 11.447,-0.021c1.78,-2.391 3.358,-4.899 4.658,-7.5c-0.056,-0.065 -0.102,-0.134 -0.138,-0.208Zm-15.88,-9.013c-0.83,0.594 -1.718,1.232 -2.373,1.721c-0.28,0.211 -0.636,0.251 -0.943,0.139c-0.933,0.714 -1.851,1.438 -2.748,2.178c0.002,0.016 0.003,0.034 0.003,0.051c0,3.467 -0.028,6.848 0.552,10.281c0.092,0.543 0.179,1.474 0.388,2.284c0.109,0.422 0.24,0.814 0.45,1.056c2.147,-2.971 4.414,-5.856 6.751,-8.705c-0.078,-0.065 -0.137,-0.155 -0.164,-0.261c-0.504,-2.015 -1.272,-3.943 -1.682,-5.991c-0.181,-0.908 -0.226,-1.83 -0.234,-2.753Zm-5.422,-4.136c-2.79,1.474 -5.464,4.103 -7.479,6.309c-0.415,0.455 -1.055,1.031 -1.556,1.646c-0.225,0.274 -0.423,0.554 -0.542,0.834c-0.34,1.763 -0.665,3.527 -1.007,5.291c-0.273,1.4 -0.669,2.798 -0.813,4.221c1.013,-1.55 2.121,-2.996 3.307,-4.362c0.043,-0.113 0.125,-0.203 0.226,-0.258c2.744,-3.112 5.894,-5.812 9.243,-8.385c-0.027,-0.076 -0.046,-0.156 -0.054,-0.24c-0.17,-1.704 -0.81,-3.425 -1.325,-5.056Zm23.909,5.831c-0.706,-0.392 -1.611,-0.375 -2.4,-0.375c-2.203,0 -4.687,-0.012 -6.714,1.002c-0.018,0.009 -0.036,0.017 -0.055,0.023c-1.052,1.032 -2.095,2.073 -3.048,3.198c-1.233,1.458 -2.454,2.919 -3.658,4.39c1.284,-0.681 2.497,-1.082 3.362,-1.29c3.231,-0.778 6.67,-0.967 9.97,-0.628c0.036,-0.054 0.077,-0.106 0.125,-0.153c0.029,-0.029 0.059,-0.059 0.088,-0.087c0.33,-0.717 0.638,-1.44 0.922,-2.169c0.483,-1.24 0.959,-2.555 1.408,-3.911Zm-10.764,-7.257c-2.137,1.543 -4.282,3.081 -6.43,4.634c-0.094,0.068 -0.193,0.139 -0.295,0.212c-0.007,1.097 0.002,2.196 0.217,3.273c0.382,1.909 1.08,3.713 1.578,5.582c0.896,-1.084 1.802,-2.164 2.714,-3.242c1.141,-1.348 2.412,-2.574 3.672,-3.81c-0.002,-0.018 -0.003,-0.037 -0.003,-0.056c0,-0.292 -0.151,-0.641 -0.306,-0.993c-0.196,-0.448 -0.414,-0.896 -0.51,-1.262c-0.369,-1.403 -0.573,-2.878 -0.637,-4.338Zm-20.272,-14.403c-4.106,4.257 -8.064,9.064 -10.978,14.212c0.299,0.186 0.594,0.44 0.875,0.73c0.571,0.59 1.091,1.329 1.486,1.791c1.931,2.262 3.441,4.851 5.284,7.187c0.19,-0.978 0.386,-1.956 0.593,-2.932c1.019,-4.815 1.346,-9.809 1.94,-14.687c0.263,-2.168 0.666,-4.172 0.8,-6.301Zm1.008,-0.116c-0.126,2.214 -0.542,4.289 -0.816,6.538c-0.596,4.907 -0.928,9.93 -1.954,14.773c-0.086,0.405 -0.17,0.81 -0.252,1.215c0.337,-0.348 0.671,-0.669 0.924,-0.946c2.123,-2.326 4.965,-5.086 7.912,-6.603c-1.212,-3.786 -2.646,-7.521 -4.08,-11.227c-0.497,-1.282 -0.998,-2.582 -1.734,-3.75Zm32.657,4.455l-0.077,0.062c-2.004,5.222 -4.362,9.832 -8.093,14.17c-0.628,0.73 -1.292,1.425 -1.971,2.107c1.67,-0.38 3.463,-0.393 5.112,-0.393c0.888,0 1.881,0.037 2.709,0.418c1.073,-3.389 1.948,-6.98 2.318,-10.258c0.195,-1.727 0.087,-3.512 0.031,-5.244c-0.009,-0.287 -0.018,-0.574 -0.029,-0.862Zm-1.643,1.301c-3.537,2.771 -7.138,5.424 -10.771,8.055c0.023,1.603 0.218,3.243 0.625,4.791c0.104,0.397 0.375,0.897 0.572,1.38c0.047,0.117 0.091,0.234 0.129,0.349c0.744,-0.743 1.474,-1.498 2.16,-2.296c3.267,-3.799 5.455,-7.814 7.285,-12.279Z"/></g></svg>