<?xml version="1.0" ?><!DOCTYPE svg  PUBLIC '-//W3C//DTD SVG 1.1//EN'  'http://www.w3.org/Graphics/SVG/1.1/DTD/svg11.dtd'><svg height="100%" style="fill-rule:evenodd;clip-rule:evenodd;stroke-linejoin:round;stroke-miterlimit:2;" version="1.1" viewBox="0 0 100 100" width="100%" xml:space="preserve" xmlns="http://www.w3.org/2000/svg" xmlns:serif="http://www.serif.com/" xmlns:xlink="http://www.w3.org/1999/xlink"><g id="Icon"><path d="M49.741,22.059c-0.681,-1.762 -1.523,-3.458 -2.433,-5.156c-0.638,-1.191 -1.23,-2.516 -2.338,-3.36c-0.237,-0.181 -0.649,-0.467 -1.027,-0.57c-0.337,-0.091 -0.665,-0.073 -0.957,0.048c-0.322,0.134 -0.574,0.38 -0.737,0.715c-0.176,0.361 -0.223,0.883 -0.242,1.186c-0.084,1.317 0.053,2.702 0.364,3.983c0.802,3.304 3.112,6.118 5.125,8.769c0.605,0.796 1.204,1.782 1.913,2.565c0.08,0.136 0.192,0.251 0.324,0.335c0.059,0.057 0.119,0.112 0.18,0.165c-0.48,2.002 -1.083,3.958 -1.735,5.901c-0.046,-0.135 -0.091,-0.27 -0.135,-0.405c-0.666,-2.026 -1.285,-4.109 -2.228,-6.027c-0.701,-1.425 -1.84,-3.284 -3.424,-3.879c-0.89,-0.333 -1.576,-0.037 -2.071,0.552c-0.497,0.592 -0.731,1.606 -0.694,2.251c0.135,2.391 1.054,4.524 2.265,6.573c1.266,2.142 3.363,3.906 4.475,6.116c-0.154,0.438 -0.308,0.879 -0.461,1.32c-0.071,0.119 -0.115,0.25 -0.132,0.384c-0.445,1.298 -0.875,2.605 -1.269,3.933c-3.115,10.507 -4.366,22.525 -0.761,33.022c-2.228,-2.697 -4.11,-5.684 -5.148,-8.724c-0.112,-0.328 -0.221,-0.657 -0.325,-0.987c0.804,-2.013 1.943,-3.906 2.64,-5.973c0.452,-1.342 0.593,-2.802 0.708,-4.207c0.048,-0.593 0.201,-1.654 0.081,-2.543c-0.119,-0.886 -0.507,-1.613 -1.185,-1.987c-0.645,-0.356 -1.255,-0.258 -1.802,0.143c-0.663,0.487 -1.205,1.692 -1.384,2.176c-0.083,0.225 -0.138,0.398 -0.205,0.63c-0.352,1.226 -0.532,2.513 -0.64,3.805c-0.308,-2.183 -0.479,-4.387 -0.528,-6.595l0.004,-0.003c1.569,-1.176 2.984,-2.634 4.328,-4.056c1.554,-1.644 2.57,-3.548 3.181,-5.723c0.238,-0.847 0.467,-1.846 0.319,-2.733c-0.129,-0.773 -0.515,-1.197 -0.951,-1.423c-0.559,-0.29 -1.349,-0.243 -2.107,0.168c-1.33,0.72 -2.407,1.958 -3.148,3.252c-0.526,0.918 -0.93,1.902 -1.331,2.882c0.037,-0.386 0.078,-0.771 0.122,-1.155c0.111,-0.526 0.06,-0.814 0.111,-1.119c0.382,-2.294 1.535,-4.092 1.999,-6.385c0.324,-1.601 0.19,-3.291 0.27,-4.915c0.088,-1.765 0.255,-3.876 -0.367,-5.575c-0.503,-1.37 -2.31,-2.431 -3.524,-0.966c-0.694,0.837 -1.088,2.054 -1.333,3.089c-0.434,1.829 -0.361,3.737 -0.303,5.599c0.049,1.572 0.084,3.151 0.243,4.717c0.134,1.323 0.343,2.643 0.728,3.918c0.047,0.154 0.136,0.525 0.257,0.832c-0.205,1.68 -0.352,3.372 -0.435,5.07c-0.394,-0.986 -0.809,-1.966 -1.2,-2.965c-0.597,-1.524 -1.105,-3.259 -2.406,-4.365c-1.013,-0.863 -1.997,-0.86 -2.674,-0.48c-0.657,0.369 -1.17,1.201 -1.088,2.426c0.15,2.25 1.065,4.521 2.162,6.46c0.861,1.521 1.899,2.897 3.206,4.065c0.456,0.407 0.935,0.794 1.458,1.113c0.067,0.041 0.254,0.137 0.339,0.18c0.065,0.076 0.14,0.14 0.222,0.192c0.119,2.124 0.352,4.239 0.708,6.332c-1.148,-1.562 -2.471,-3.097 -4.074,-4.083c-0.702,-0.432 -1.773,-1.026 -2.79,-1.184c-0.902,-0.14 -1.766,0.03 -2.453,0.682c-0.351,0.332 -0.471,0.738 -0.434,1.176c0.024,0.287 0.152,0.601 0.235,0.837c0.378,1.07 0.848,2.015 1.584,2.891c2.2,2.62 5.831,5.419 9.384,5.901c0.014,0.156 0.064,0.307 0.146,0.439c0.116,0.366 0.235,0.73 0.359,1.093c0.402,1.176 0.921,2.346 1.534,3.497c-0.249,-0.178 -0.487,-0.346 -0.712,-0.476c-1.744,-1.009 -3.521,-1.804 -5.541,-2.025c-1.099,-0.12 -2.312,0.103 -3.162,0.865c-0.747,0.669 -0.959,1.492 -0.807,2.212c0.15,0.709 0.671,1.375 1.583,1.707c2.04,0.745 4.419,1.271 6.585,1.421c1.488,0.104 3.072,-0.006 4.553,0.249c1.518,2.078 3.267,4.033 5.07,5.775c0.349,2.186 0.779,4.327 1.253,6.378c0.124,0.537 0.662,0.873 1.199,0.749c0.538,-0.124 0.874,-0.662 0.75,-1.2c-0.282,-1.219 -0.549,-2.471 -0.792,-3.747c0.351,0.297 0.7,0.584 1.048,0.861c0.431,0.344 1.061,0.273 1.405,-0.159c0.344,-0.431 0.273,-1.061 -0.158,-1.405c-0.937,-0.747 -1.892,-1.57 -2.837,-2.455c-0.583,-3.837 -0.902,-7.801 -0.736,-11.636c1.541,-0.231 3.056,-0.509 4.541,-1.031c1.104,-0.388 2.195,-0.832 3.25,-1.343c1.28,-0.62 2.625,-1.455 3.361,-2.721c0.416,-0.715 0.477,-1.454 0.271,-2.057c-0.223,-0.651 -0.751,-1.201 -1.651,-1.415c-0.907,-0.216 -1.932,0.065 -2.799,0.313c-2.333,0.666 -4.672,2.101 -6.521,3.687c0.082,-0.513 0.175,-1.021 0.28,-1.524c0.406,-1.945 0.938,-3.859 1.567,-5.742c1.162,0 2.377,-0.294 3.502,-0.454c3.436,-0.491 6.743,-1.162 9.78,-2.926c1.187,-0.69 2.376,-1.514 3.125,-2.698c0.365,-0.577 0.677,-1.447 0.442,-2.15c-0.138,-0.417 -0.419,-0.716 -0.784,-0.912c-0.339,-0.181 -0.768,-0.259 -1.118,-0.279c-1.226,-0.071 -2.502,0.24 -3.68,0.537c-3.237,0.816 -6.451,2.403 -9.217,4.259c-0.132,0.088 -0.273,0.179 -0.419,0.272c0.844,-2.038 1.779,-4.043 2.768,-6.022c5.132,-1.711 10.584,-2.324 15.234,-5.327c1.302,-0.841 2.916,-2.018 3.63,-3.445c0.402,-0.804 0.395,-1.631 0.091,-2.283c-0.319,-0.685 -0.966,-1.222 -1.944,-1.342c-1.603,-0.197 -3.119,0.357 -4.58,0.928c-2.341,0.915 -4.567,2.324 -6.543,3.867c-1.153,0.899 -2.208,1.891 -3.366,2.777c0.931,-1.719 1.88,-3.421 2.818,-5.107c2.682,-2.341 5.457,-4.597 8.071,-7.025c2.035,-1.89 4.374,-4.856 4.49,-7.818c0.03,-0.751 -0.23,-1.23 -0.574,-1.545c-0.337,-0.309 -0.805,-0.478 -1.357,-0.48c-1.016,-0.004 -2.425,0.646 -2.964,1c-2.731,1.796 -4.727,5.122 -6.514,7.777c-1.068,1.586 -1.993,3.326 -2.682,5.111c-0.294,0.764 -0.901,2.98 -1.224,3.818c-1.179,2.126 -2.357,4.278 -3.485,6.46c0.153,-0.606 0.076,-1.176 -0.259,-1.65c-0.365,-0.515 -0.903,-0.708 -1.539,-0.617c-0.712,0.101 -1.636,0.74 -1.973,0.995c-0.195,0.148 -0.393,0.299 -0.577,0.46c-0.834,0.734 -1.671,1.52 -2.45,2.364c0.156,-0.571 0.317,-1.137 0.484,-1.698c0.382,-1.289 0.797,-2.56 1.226,-3.821c2.153,-1.876 4.745,-3.248 6.847,-5.202c1.567,-1.456 2.753,-3.212 3.944,-4.972c0.726,-1.072 1.455,-2.207 1.938,-3.414c0.122,-0.304 0.298,-0.793 0.297,-1.21c-0,-0.344 -0.095,-0.658 -0.284,-0.918c-0.271,-0.376 -0.67,-0.579 -1.133,-0.625c-0.391,-0.038 -0.839,0.057 -1.143,0.154c-1.205,0.383 -2.188,1.309 -3.149,2.089c-1.521,1.234 -2.803,2.611 -3.935,4.117c0.587,-1.966 1.09,-3.96 1.443,-6.012c4.063,-2.275 7.504,-4.562 10.357,-8.414c0.898,-1.213 1.694,-2.648 2.186,-4.076c0.149,-0.436 0.264,-0.998 0.209,-1.423c-0.047,-0.361 -0.194,-0.661 -0.416,-0.884c-0.285,-0.287 -0.734,-0.523 -1.475,-0.378c-1.855,0.363 -3.314,1.725 -4.564,3.039c-1.572,1.654 -3.111,3.408 -4.479,5.255c0.265,-1.094 0.489,-2.19 0.685,-3.261c0.323,-1.761 0.701,-3.487 0.701,-5.289c-0,-0.899 0.034,-2.061 -0.169,-3.105c-0.164,-0.843 -0.481,-1.613 -1.013,-2.193c-0.43,-0.469 -0.877,-0.654 -1.288,-0.696c-0.439,-0.044 -0.869,0.077 -1.268,0.345c-0.719,0.484 -1.341,1.593 -1.624,2.219c-1.253,2.775 -1.29,5.445 -1.118,8.446c0.082,1.434 0.292,2.851 0.544,4.261Zm-12.48,55.594c-0.259,-0.187 -0.506,-0.364 -0.739,-0.499c-1.5,-0.868 -3.019,-1.577 -4.757,-1.768c-0.554,-0.061 -1.182,-0.017 -1.61,0.366c-0.114,0.103 -0.207,0.2 -0.184,0.31c0.025,0.12 0.157,0.185 0.312,0.242c1.87,0.682 4.051,1.166 6.037,1.304c0.31,0.022 0.624,0.035 0.941,0.045Zm14.723,-28.004c-0.26,0.37 -0.526,0.692 -0.704,0.906c-1.972,2.365 -4.092,4.406 -6.767,5.98c-0.033,0.019 -0.067,0.037 -0.101,0.052c-1.2,7.015 -1.3,14.312 0.548,21.064c-0.176,-3.811 0.013,-7.599 0.751,-11.138c1.226,-5.873 3.564,-11.466 6.273,-16.864Zm-4.25,21.212c1.041,-0.181 2.069,-0.41 3.08,-0.766c1.034,-0.363 2.055,-0.778 3.042,-1.256c0.935,-0.453 1.966,-1.001 2.504,-1.926c0.089,-0.153 0.174,-0.299 0.102,-0.416c-0.038,-0.063 -0.121,-0.083 -0.217,-0.106c-0.582,-0.138 -1.228,0.131 -1.785,0.291c-2.132,0.609 -4.259,1.957 -5.92,3.413c-0.247,0.217 -0.538,0.475 -0.806,0.766Zm-12.662,-2.293c-0.3,-0.444 -0.631,-0.869 -0.933,-1.309c-1.229,-1.791 -2.637,-3.832 -4.516,-4.989c-0.446,-0.274 -1.079,-0.653 -1.727,-0.838c-0.274,-0.079 -0.556,-0.143 -0.802,-0.078l0.021,0.058c0.296,0.838 0.653,1.585 1.229,2.271c1.627,1.937 4.12,4.044 6.728,4.885Zm4.62,-10.407c-0.182,0.312 -0.427,0.745 -0.487,0.91c-0.065,0.174 -0.108,0.309 -0.159,0.489c-0.587,2.041 -0.641,4.261 -0.74,6.375c0.262,-0.583 0.504,-1.173 0.708,-1.778c0.401,-1.189 0.509,-2.485 0.611,-3.73c0.034,-0.425 0.144,-1.128 0.119,-1.792c-0.007,-0.164 -0.021,-0.324 -0.052,-0.474Zm24.412,-4.4l-0.036,-0.003c-1.027,-0.06 -2.09,0.231 -3.076,0.479c-3.018,0.761 -6.013,2.25 -8.592,3.981c-0.352,0.236 -0.784,0.481 -1.206,0.747c0.427,-0.078 0.851,-0.161 1.261,-0.219c3.179,-0.454 6.248,-1.043 9.058,-2.676c0.914,-0.531 1.863,-1.126 2.439,-2.037c0.051,-0.081 0.106,-0.173 0.152,-0.272Zm-35.381,-8.11c-0.027,0.09 -0.09,0.329 -0.077,0.524c0.13,1.957 0.952,3.922 1.907,5.608c0.709,1.254 1.552,2.399 2.603,3.381c-0.604,-1.952 -1.451,-3.793 -2.201,-5.707c-0.481,-1.229 -0.791,-2.68 -1.839,-3.572c-0.117,-0.1 -0.229,-0.175 -0.338,-0.218c-0.015,-0.006 -0.036,-0.012 -0.055,-0.016Zm21.779,2.639c-0.144,0.084 -0.27,0.16 -0.328,0.204c-0.157,0.12 -0.317,0.239 -0.465,0.369c-1.493,1.313 -3.019,2.8 -4.104,4.515c1.531,-1.192 2.866,-2.577 4.138,-4.104c0.183,-0.219 0.502,-0.582 0.759,-0.984Zm-8.673,-4.146c-0.052,0.019 -0.106,0.04 -0.147,0.063c-1.009,0.546 -1.803,1.506 -2.366,2.487c-0.607,1.06 -1.033,2.217 -1.502,3.341c-0.344,0.827 -0.678,1.657 -1.024,2.483c-0.086,0.205 -0.209,0.42 -0.307,0.64c0.818,-0.761 1.595,-1.574 2.35,-2.373c1.327,-1.404 2.188,-3.033 2.709,-4.89c0.153,-0.544 0.348,-1.174 0.287,-1.751Zm15.346,3.574c3.669,-0.946 7.347,-1.812 10.609,-3.918c1.029,-0.665 2.362,-1.532 2.926,-2.659c0.097,-0.193 0.14,-0.388 0.067,-0.544c-0.057,-0.124 -0.198,-0.18 -0.375,-0.202c-1.268,-0.156 -2.452,0.354 -3.608,0.806c-2.163,0.845 -4.214,2.155 -6.041,3.58c-1.223,0.955 -2.339,2.008 -3.578,2.937Zm-20.862,-17.861c-0.447,0.606 -0.671,1.45 -0.839,2.161c-0.393,1.657 -0.303,3.388 -0.25,5.075c0.047,1.526 0.08,3.058 0.234,4.578c0.048,0.473 0.106,0.947 0.18,1.418c0.313,-1.182 0.641,-2.362 0.884,-3.563c0.304,-1.504 0.157,-3.091 0.233,-4.618c0.075,-1.514 0.286,-3.329 -0.248,-4.786c-0.031,-0.084 -0.123,-0.191 -0.194,-0.265Zm22.146,0.165c-0.846,0.356 -1.532,1.069 -2.234,1.639c-2.497,2.027 -4.287,4.478 -5.851,7.268c-0.243,0.435 -0.556,0.896 -0.84,1.373c1.245,-0.865 2.491,-1.732 3.599,-2.763c1.455,-1.353 2.543,-2.993 3.65,-4.628c0.617,-0.911 1.247,-1.869 1.676,-2.889Zm-16.645,-1.766c-0.057,0.123 -0.148,0.335 -0.171,0.473c-0.017,0.105 -0.025,0.205 -0.021,0.29c0.117,2.066 0.945,3.898 1.991,5.669c0.871,1.474 2.122,2.777 3.191,4.162c-0.199,-0.67 -0.444,-1.328 -0.662,-1.991c-0.636,-1.938 -1.219,-3.933 -2.122,-5.767c-0.276,-0.562 -0.621,-1.223 -1.056,-1.8c-0.326,-0.433 -0.697,-0.827 -1.15,-1.036Zm27.72,-2.234c-0.118,0.008 -0.28,0.024 -0.398,0.054c-0.176,0.045 -0.353,0.105 -0.523,0.171c-0.365,0.142 -0.692,0.312 -0.873,0.431c-2.52,1.657 -4.305,4.773 -5.954,7.223c-0.776,1.153 -1.472,2.393 -2.042,3.674c2,-1.706 4.014,-3.401 5.941,-5.19c1.677,-1.557 3.718,-3.924 3.849,-6.363Zm-25.544,-10.693c-0.037,1.034 0.082,2.106 0.324,3.104c0.719,2.959 2.809,5.458 4.628,7.839c-0.66,-3.013 -1.944,-5.714 -3.397,-8.424c-0.46,-0.859 -0.832,-1.843 -1.555,-2.519Zm19.094,-0.143c-1.137,0.443 -2.038,1.4 -2.864,2.269c-1.828,1.923 -3.611,3.984 -5.112,6.176c-0.258,0.376 -0.505,0.76 -0.749,1.147c2.598,-1.647 4.887,-3.501 6.864,-6.17c0.755,-1.02 1.432,-2.219 1.861,-3.422Zm-10.067,-6.354c-0.06,0.051 -0.143,0.123 -0.192,0.182c-0.091,0.107 -0.175,0.226 -0.252,0.346c-0.188,0.293 -0.337,0.598 -0.435,0.815c-1.113,2.465 -1.097,4.843 -0.944,7.509c0.096,1.667 0.375,3.309 0.686,4.946c0.475,-1.631 0.833,-3.306 1.129,-4.919c0.301,-1.642 0.668,-3.25 0.668,-4.929c-0,-0.668 0.03,-1.5 -0.066,-2.297c-0.075,-0.623 -0.208,-1.232 -0.59,-1.649l-0.004,-0.004Z"/></g></svg>